<svg id="菜单_icon_后台定制化" data-name="菜单/icon/后台定制化" xmlns="http://www.w3.org/2000/svg" width="20" height="20" viewBox="0 0 20 20">
  <g id="组_14705" data-name="组 14705" opacity="0">
    <path id="路径_6984" data-name="路径 6984" d="M2271.75,5371.75h-20v-20h20Zm-19.845-.154h19.69v-19.69h-19.69Z" transform="translate(-2251.75 -5351.75)" fill="#fff"/>
  </g>
  <path id="路径_6985" data-name="路径 6985" d="M2272.738,5367.794l-4.183-4.184,3.422-3.422-4.79-4.79-3.424,3.42-4.181-4.181-4.792,4.792,4.18,4.181-2.587,2.584-.669,5.466,5.462-.672,2.585-2.587,4.183,4.184Zm-2.515-7.606-.862.862-3.036-3.037.862-.862Zm-4.776-1.3,3.037,3.037-.806.807-3.038-3.038Zm-5.865-2.5,11.4,11.4-3.039,3.038-2.083-2.083,1.128-1.128-.877-.877-1.128,1.128-2.3-2.3,1.519-1.519-.877-.877-1.519,1.519-2.3-2.3,1.128-1.128-.877-.877-1.127,1.128-2.083-2.083Zm-2.148,11.43,2.118,2.117-2.413.3Zm3.455,1.7-3.039-3.04,2-2,3.038,3.038Z" transform="translate(-2253.848 -5353.742)" fill="#fff"/>
</svg>
