<svg xmlns="http://www.w3.org/2000/svg" width="20" height="20" viewBox="0 0 20 20">
  <g id="菜单_icon_流程配置" data-name="菜单/icon/流程配置" transform="translate(0 0)">
    <g id="组_14718" data-name="组 14718" opacity="0">
      <path id="路径_7001" data-name="路径 7001" d="M899.844,5542.156v19.688H880.156v-19.687h19.688M900,5542H880v20h20v-20Z" transform="translate(-880 -5542)" fill="#fff"/>
    </g>
    <path id="路径_7002" data-name="路径 7002" d="M899.131,5548.563H897V5547H885.75v4.375H897v-1.562h1.614l.886.886v3.228l-.886.886H897v-1.562H885.75v1.563h-2.131L882,5556.431v4.263l1.619,1.619h2.131v1.563H897V5559.5H885.75v1.563h-1.614l-.886-.886v-3.228l.886-.886h1.614v1.563H897v-1.562h2.131l1.619-1.619v-4.263Zm-3.381,1.563H887v-1.875h8.75ZM887,5560.75h8.75v1.875H887Zm8.75-4.375H887V5554.5h8.75Z" transform="translate(-881.375 -5545.438)" fill="#fff"/>
  </g>
</svg>
