<svg xmlns="http://www.w3.org/2000/svg" width="20" height="20" viewBox="0 0 20 20">
  <g id="菜单_icon_生产管理" data-name="菜单/icon/生产管理" transform="translate(0 0)">
    <g id="组_14738" data-name="组 14738" opacity="0">
      <path id="路径_7015" data-name="路径 7015" d="M1879.844,5542.156v19.688h-19.687v-19.687h19.688M1880,5542h-20v20h20v-20Z" transform="translate(-1860 -5542)" fill="#fff"/>
    </g>
    <g id="组_14739" data-name="组 14739" transform="translate(2.141 0.625)">
      <path id="路径_7016" data-name="路径 7016" d="M1868.191,5544l-1.339,18.75h7.593L1873.1,5544Zm0,17.5,1.16-16.25h2.586l1.161,16.25Z" transform="translate(-1866.852 -5544)" fill="#fff"/>
      <path id="路径_7017" data-name="路径 7017" d="M1899.01,5568h-6.88l.947,11.25h6.88Zm-4.783,10-.737-8.75h4.371l.736,8.75Z" transform="translate(-1884.231 -5560.5)" fill="#fff"/>
      <rect id="矩形_9699" data-name="矩形 9699" width="2.887" height="1.25" transform="matrix(0.5, -0.866, 0.866, 0.5, 11.918, 5.695)" fill="#fff"/>
      <rect id="矩形_9700" data-name="矩形 9700" width="2.887" height="1.25" transform="matrix(0.5, -0.866, 0.866, 0.5, 8.793, 5.695)" fill="#fff"/>
    </g>
  </g>
</svg>
