<svg xmlns="http://www.w3.org/2000/svg" width="20" height="20" viewBox="0 0 20 20">
  <g id="菜单_icon_工资管理" data-name="菜单/icon/工资管理" transform="translate(0 0)">
    <path id="路径_7018" data-name="路径 7018" d="M2056,5542v20h20v-20Zm19.844,19.844h-19.687v-19.687h19.688Z" transform="translate(-2056 -5542)" fill="#fff" opacity="0"/>
    <path id="路径_7019" data-name="路径 7019" d="M2079.24,5556.891v1.25h1.728v.539h-1.728v1.25h1.728v1.136h1.25v-1.136h1.79v-1.25h-1.79v-.539h1.79v-1.25h-1.22l1.7-2.333-1.011-.735-1.879,2.585-1.878-2.585-1.011.735,1.695,2.333Z" transform="translate(-2071.608 -5550.129)" fill="#fff"/>
    <path id="路径_7020" data-name="路径 7020" d="M2077.874,5552.749h-1.562V5544h-13.75v8.75H2061v10h16.875Zm-14.062-7.5h11.25v7.5h-1.349l-2.153,3.731h-4.247l-2.153-3.731h-1.348Zm12.813,16.25h-14.375V5554h2.189l2.153,3.731h5.69l2.153-3.731h2.189Z" transform="translate(-2059.437 -5543.374)" fill="#fff"/>
  </g>
</svg>
