<svg id="菜单_icon_库存" data-name="菜单/icon/库存" xmlns="http://www.w3.org/2000/svg" width="20" height="20" viewBox="0 0 20 20">
  <g id="组_14772" data-name="组 14772" opacity="0.003">
    <path id="路径_7030" data-name="路径 7030" d="M1683.844,5542.156v19.688h-19.687v-19.687h19.688M1684,5542h-20v20h20v-20Z" transform="translate(-1664 -5542)" fill="#fff"/>
  </g>
  <g id="组_14773" data-name="组 14773" transform="translate(0.832 0.532)">
    <path id="路径_7031" data-name="路径 7031" d="M1685,5551.958l-9.168-8.255-9.168,8.255.836.929.832-.75v10.1h15v-10.1l.832.75Zm-2.918,9.025h-12.5v-9.971l6.25-5.627,6.25,5.627Z" transform="translate(-1666.662 -5543.703)" fill="#fff"/>
    <path id="路径_7032" data-name="路径 7032" d="M1680.25,5570.844h4.219v-3.594h-4.219Zm1.094-2.5h2.031v1.406h-2.031Z" transform="translate(-1676.004 -5559.892)" fill="#fff"/>
    <path id="路径_7033" data-name="路径 7033" d="M1680.25,5586.844h4.219v-3.594h-4.219Zm1.094-2.5h2.031v1.406h-2.031Z" transform="translate(-1676.004 -5570.892)" fill="#fff"/>
    <path id="路径_7034" data-name="路径 7034" d="M1702.469,5583.25h-4.219v3.594h4.219Zm-1.094,2.5h-2.031v-1.406h2.031Z" transform="translate(-1688.379 -5570.892)" fill="#fff"/>
  </g>
</svg>
