<svg id="菜单_icon_系统管理" data-name="菜单/icon/系统管理" xmlns="http://www.w3.org/2000/svg" width="20" height="20" viewBox="0 0 20 20">
  <g id="组_14800" data-name="组 14800" opacity="0">
    <path id="路径_7064" data-name="路径 7064" d="M311.844,5542.423v19.688H292.156v-19.687h19.688m.156-.156H292v20h20v-20Z" transform="translate(-292 -5542.267)" fill="#fff"/>
  </g>
  <g id="组_14801" data-name="组 14801" transform="translate(0.707 1.953)">
    <path id="路径_7065" data-name="路径 7065" d="M318.856,5559.676a2.958,2.958,0,1,0-5.077,2.059l-1.374,1.374v2.2h6.987v-2.2l-1.374-1.374A2.948,2.948,0,0,0,318.856,5559.676Zm-2.957-1.864a1.864,1.864,0,1,1-1.864,1.864A1.867,1.867,0,0,1,315.9,5557.812Zm2.4,6.406h-4.8v-.657l.928-.928h2.944l.928.928Z" transform="translate(-306.736 -5554.155)" fill="#fff"/>
    <path id="路径_7066" data-name="路径 7066" d="M320.905,5568.585a1.485,1.485,0,0,0,1.217-.635l-.9-.626a.4.4,0,0,1-.64,0l-.9.626A1.486,1.486,0,0,0,320.905,5568.585Z" transform="translate(-311.743 -5561.446)" fill="#fff"/>
    <path id="路径_7067" data-name="路径 7067" d="M312.857,5562.11v-13.594H294.263v13.594h8.672v1.328H298.56v1.25h10v-1.25h-4.375v-1.328Zm-17.5-12.5h16.406v11.406H295.357Z" transform="translate(-294.263 -5548.516)" fill="#fff"/>
  </g>
</svg>
