<svg xmlns="http://www.w3.org/2000/svg" width="20" height="20" viewBox="0 0 20 20">
  <g id="菜单_icon_系统配置" data-name="菜单/icon/系统配置" transform="translate(0 0)">
    <g id="组_14706" data-name="组 14706" opacity="0">
      <path id="路径_6986" data-name="路径 6986" d="M115.844,5542.156v19.688H96.156v-19.687h19.688M116,5542H96v20h20v-20Z" transform="translate(-96 -5542)" fill="#fff"/>
    </g>
    <g id="组_14707" data-name="组 14707" transform="translate(1.563 1.563)">
      <path id="路径_6987" data-name="路径 6987" d="M101,5547v16.875h16.875V5547Zm15.625,15.625H102.25V5548.25h14.375Z" transform="translate(-101 -5547)" fill="#fff"/>
      <path id="路径_6988" data-name="路径 6988" d="M116.687,5581.107h3.75v-1.362H122v-1.25h-1.562v-1.138h-3.75v1.138H112v1.25h4.688Zm1.25-2.5h1.25v1.25h-1.25Z" transform="translate(-108.562 -5567.871)" fill="#fff"/>
      <path id="路径_6989" data-name="路径 6989" d="M113.562,5562.75h3.75v-1.25H122v-1.25h-4.687V5559h-3.75v1.25H112v1.25h1.563Zm1.25-2.5h1.25v1.25h-1.25Z" transform="translate(-108.562 -5555.25)" fill="#fff"/>
    </g>
  </g>
</svg>
