<svg width="16" height="16" viewBox="0 0 16 16" fill="none" xmlns="http://www.w3.org/2000/svg">
<path fill-rule="evenodd" clip-rule="evenodd" d="M6.51777 1.33334L6.43587 1.74952L6.12254 3.27238C5.62159 3.46381 5.16729 3.73526 4.75682 4.05716L3.22539 3.54478L2.81397 3.41716L2.60064 3.78477L1.54634 5.54855L1.33301 5.91622L1.64539 6.18955L2.83016 7.1981C2.7873 7.46191 2.73206 7.72284 2.73206 7.99998C2.73206 8.27712 2.7873 8.53811 2.83016 8.80192L1.64539 9.81047L1.33301 10.0838L1.54634 10.4514L2.60064 12.2152L2.81397 12.5838L3.22539 12.4552L4.75682 11.9429C5.16729 12.2648 5.62159 12.5362 6.12254 12.7276L6.43587 14.2504L6.51777 14.6667H9.48063L9.56348 14.2504L9.87587 12.7276C10.3768 12.5362 10.8311 12.2648 11.2416 11.9429L12.773 12.4552L13.1844 12.5838L13.3987 12.2152L14.4521 10.4514L14.6663 10.0838L14.353 9.81047L13.1682 8.80192C13.2121 8.53811 13.2663 8.27712 13.2663 7.99998C13.2663 7.72284 13.2121 7.46191 13.1682 7.1981L14.353 6.18955L14.6663 5.91622L14.4521 5.54855L13.3987 3.78477L13.1844 3.41716L12.773 3.54478L11.2416 4.05716C10.8311 3.73526 10.3768 3.46381 9.87587 3.27238L9.56348 1.74952L9.48063 1.33334H6.51777Z" stroke="#1F2229" stroke-linecap="square" stroke-linejoin="round"/>
<path fill-rule="evenodd" clip-rule="evenodd" d="M10 7.99997C10 9.10397 9.104 10 8 10C6.896 10 6 9.10397 6 7.99997C6 6.89597 6.896 6 8 6C9.104 6 10 6.89597 10 7.99997Z" stroke="#1F2229" stroke-linecap="square" stroke-linejoin="round"/>
</svg>
