<svg xmlns="http://www.w3.org/2000/svg" width="20" height="20" viewBox="0 0 20 20">
  <g id="菜单_icon_系统监控" data-name="菜单/icon/系统监控" transform="translate(0 0)">
    <g id="组_14802" data-name="组 14802" opacity="0">
      <path id="路径_7068" data-name="路径 7068" d="M2271.844,5541.863v19.688h-19.687v-19.687h19.688m.156-.156h-20v20h20v-20Z" transform="translate(-2252 -5541.707)" fill="#fff"/>
    </g>
    <g id="组_14803" data-name="组 14803" transform="translate(0.703 1.364)">
      <path id="路径_7069" data-name="路径 7069" d="M2291.861,5549.483a5.309,5.309,0,0,0-9.917,0l-.086.224.086.223a5.309,5.309,0,0,0,9.917,0l.086-.223Zm-4.959,2.609a2.619,2.619,0,1,1,3.7-2.385A4.085,4.085,0,0,1,2286.9,5552.092Z" transform="translate(-2273.23 -5546.071)" fill="#fff"/>
      <path id="路径_7070" data-name="路径 7070" d="M2294.391,5552.457a1.641,1.641,0,1,0,1.641,1.641A1.642,1.642,0,0,0,2294.391,5552.457Zm0,2.188a.547.547,0,1,1,.547-.547A.548.548,0,0,1,2294.391,5554.645Z" transform="translate(-2280.718 -5550.461)" fill="#fff"/>
      <path id="路径_7071" data-name="路径 7071" d="M2268.971,5568.428l2.064,2.064,2.118-2.118-.884-.884-1.235,1.234-2.064-2.064-2.97,2.97.884.884Z" transform="translate(-2262.329 -5560.227)" fill="#fff"/>
      <path id="路径_7072" data-name="路径 7072" d="M2271.749,5560.166h-16.406v-11.406h7.6v-1.094h-8.7v13.594h8.672v1.418H2257.3v1.25h12.5v-1.25h-5.625v-1.418h8.671v-7.253h-1.094Z" transform="translate(-2254.249 -5547.167)" fill="#fff"/>
    </g>
  </g>
</svg>
